<svg width="364" height="224" xmlns="http://www.w3.org/2000/svg">

 <g>
  <title>Layer 1</title>
  <ellipse stroke="#000" ry="86.5" rx="92" id="svg_1" cy="91.5" cx="93.00001" fill="#0E353B"/>
  <ellipse ry="76" rx="76.5" id="svg_2" cy="78" cx="207.50001" stroke="#000" fill="#0E353B"/>
  <ellipse stroke="#000" ry="84" rx="89" id="svg_4" cy="136.99999" cx="213.00001" fill="#0E353B"/>
  <ellipse stroke="#000" ry="63" rx="61" id="svg_5" cy="71" cx="302.00001" fill="#0E353B"/>
  <ellipse stroke="#000" ry="87.5" rx="91" id="svg_10" cy="90.5" cx="91.00001" fill="#0707f7"/>
  <ellipse stroke="#000" ry="65" rx="61.5" id="svg_12" cy="72" cx="302.50002" fill="#0707f7"/>
  <ellipse stroke="#000" ry="66" rx="72.5" id="svg_13" cy="66" cx="205.5" fill="#0707f7"/>
  <ellipse stroke="#000" ry="75" rx="87.49999" id="svg_14" cy="149" cx="214.50001" fill="#0707f7"/>
  <path d="m204,48c0,0 5,25.99998 6,33.99998c1,8 2,13 2,15c0,1 0.29291,2.29291 1,3c0.70709,0.70709 0,2 0,2c1,0 2,0 2,0c1,0 2.15225,0.76538 4,0c1.30655,-0.5412 5.59399,-2.513 8,-4c2.69,-1.66251 8.21167,-3.71411 11,-6c4.37469,-3.5864 7,-6 9,-8c2,-2 3,-3 4,-4c1,-1 2,-2 2,-3c0,-1 -1.76993,-3.54865 -6,-5c-4.82303,-1.65482 -16,-2.99998 -22,-2.99998c-8,0 -12,0 -15,0c-3,0 -4,0 -5,0c0,0 -1,0 -2,0c0,0 -1,0 0,0c0,0 8.03677,0.93864 20,0c19.17645,-1.50461 27.22836,-3.85194 30,-5c2.61313,-1.0824 2.5412,-2.30656 2,-1c-0.38269,0.92387 -1.88733,1.37669 -8,3c-4.92819,1.30876 -10.97418,2.13911 -16,3c-6.96957,1.19383 -10.87857,2.49345 -14,2.99998c-1.97418,0.32037 -4,1 -5,1c-1,0 -1,0 -1,0c1,0 2,0 5,0c3,0 5,0 7,0c2,0 2,0 3,0c1,0 -1,0 -3,0c-6,0 -11,0 -14,0c-4,0 -7,1 -10,1c-2,0 -3,0 -4,0c-1,0 -1.98502,-0.24435 0,0c4.09222,0.50378 14,1 20,1c6,0 8,0 10,0c3,0 4,0 4,0c1,0 2,0 2,0c-2,-1 -4,-1 -7,-1c-4,0 -11,0 -14,0c-5,0 -9,0 -12,0c-2,0 -3,0 -5,0c0,0 0.00497,1.19925 4,1c10.03738,-0.50061 21.8139,-5.49486 40,-6.99998c5.97955,-0.49489 9,-2 10,-2c1,0 2,0 2,0c-2,0 -7.9704,0.09111 -14,2c-9.9534,3.15112 -14.74707,4.61699 -19,5.99998c-5.78461,1.88107 -9.15225,1.23462 -11,2c-1.30655,0.5412 -3,1 -2,1c3,0 10.13947,1.21039 24,-1c8.14331,-1.29865 12.22836,-0.85196 15,-2c1.30655,-0.5412 3,-1 3,-1c0,0 -1,0 -4,0c-1,0 -5.09662,-0.46625 -11,1c-3.06903,0.76227 -5.71201,1.98163 -11,3c-2.94586,0.56732 -5,1 -8,1c0,0 -2,-1 -2,0c0,1 9.01559,0.19843 23,-1c20.02634,-1.71619 25,-3 28,-3c1,0 3,0 3,0c1,0 2,0 2,0c1,0 0,0 -2,0c-7,0 -11,0 -14,0c-2,0 -4,0 -8,0c-2,0 -4,0 -6,0c-2,0 -4,0 -5,0c-1,0 -1.11505,0.27432 1,1c4.82303,1.65482 9.93796,2.49829 16,3c1.99319,0.16495 4,0 6,1c0,0 2,1 2,0c0,-4 -10.06458,-0.1991 -15,-1c-3.12143,-0.50653 -6.08026,-1.31073 -9,-2c-2.17624,-0.51373 -3,-2 -4,-2c0,0 -2,-1 -2,0c0,1 2.00967,-0.1387 3,0c7.20975,1.00977 12,4 14,4c2,0 3,2 4,2c1,0 2.30655,-0.4588 1,-1c-0.92389,-0.38269 -2.186,0.30746 -4,-1c-1.14728,-0.8269 -2,-2 -2,-2c-1,0 -1.29291,-1.29291 -2,-2c-0.70709,-0.70709 0,0 0,0c1,0 1.29291,0.29291 2,1c1.41422,1.41422 2.85272,1.1731 4,2c1.814,1.30746 3.07611,0.61731 4,1c1.30655,0.5412 2.58578,0.58578 4,2c0.70709,0.70709 1.29291,1.29291 2,2c0.70709,0.70709 1.69345,1.4588 3,2c0.92389,0.38269 3,1 3,2c0,0 1.61731,0.07611 2,1c0.5412,1.30655 0.97324,1.22977 0,1c-2.17624,-0.51373 -4.08743,-1.79395 -9,-4c-2.03983,-0.91602 -4.02676,-2.77023 -5,-3c-2.17624,-0.51373 -2.61731,-1.07611 -3,-2c-0.5412,-1.30655 0,-1 1,-1c0,0 2.85272,0.1731 4,1c1.814,1.30746 2.85272,1.1731 4,2c1.814,1.30746 2,1 3,1c1,0 1,0 1,0c-2,-1 -4,-2 -5,-3c-1,-1 -2.29291,-0.29291 -3,-1c-0.70709,-0.70709 -2,-2 -2,-1c0,1 2.186,-0.30746 4,1c1.14728,0.8269 4,2 5,3c1,1 3.5412,0.69345 3,2c-0.76538,1.84775 -2.0535,-0.5405 -4,-1c-2.17624,-0.51373 -4.58578,-0.58578 -6,-2c-0.70709,-0.70709 -2,-2 -1,-2c1,0 1,1 4,1c1,0 3,0 5,1c0,0 2,1 2,0c0,-1 -1.64749,-0.9725 -6,-2c-1.9465,-0.4595 -4,-2 -6,-2c-2,0 -3.70709,-0.70709 -3,0c0.70709,0.70709 1,0 2,1c1,1 3,3 3,3c1,1 2,2 2,2c0,0 -1.29871,-0.94855 -3,-2c-1.9021,-1.17557 -2.47427,-2.14935 -3,-3c-1.17557,-1.9021 -2,-1 -1,-1c1,0 3.15225,1.23462 5,2c1.30655,0.5412 4,2 4,2c1,0 2,2 2,2c0,0 0.17624,-1.48627 -2,-2c-1.9465,-0.4595 -4,-1 -6,-2c0,0 -1,-2 -2,-2c-1,0 0.88153,1.19028 4,3c1.93399,1.12234 3.87857,2.49347 7,3c0.98709,0.16019 2.29291,1.29291 3,2c0.70709,0.70709 0,0 -2,-1c-2,-1 -4.07611,-2.61731 -5,-3c-1.30655,-0.5412 -3,-2 -3,-2c-1,0 -0.52573,0.14935 0,1c1.17557,1.9021 3.38687,3.9176 6,5c1.84775,0.76538 4,1 4,2c0,1 1.30655,0.5412 0,0c-0.92389,-0.38269 -2.29871,-0.94855 -4,-2c-1.9021,-1.17557 -3,-3 -4,-4c0,0 -1,-1 -1,0c0,1 2.41885,1.41885 4,3c1.58115,1.58115 3,3 4,4c1,1 2.70709,1.29291 2,2c-0.70709,0.70709 -2.74673,-1.37134 -7,-4c-3.80423,-2.35114 -6,-3 -8,-5c-1,-1 -3,-3 -3,-2c0,1 3.08582,-0.57956 5,0c3.45084,1.04483 6,2 7,2c2,0 4,1 4,0c0,-1 -3.02582,-0.67963 -5,-1c-3.12143,-0.50653 -3.82376,-1.48627 -6,-2c-0.97324,-0.22977 -2,0 -2,0c0,1 -0.38269,1.07611 0,2c0.5412,1.30655 3,1 4,1c3,0 3.82376,-1.48627 6,-2c1.9465,-0.4595 3.5412,0.30655 3,-1c-0.38269,-0.92389 -0.78986,1.07843 -2,4c-0.85571,2.06586 -3,3 -3,5c0,1 0.15225,2.76538 2,2c2.61313,-1.0824 9.22272,-7.724 13,-11c3.20511,-2.77979 5.70709,-4.29291 5,-5c-0.70709,-0.70711 -2.07611,-0.38269 -3,0c-2.61313,1.0824 -5.186,3.69254 -7,5c-2.29453,1.65381 -5.71411,5.21167 -8,8c-2.68979,3.28101 -6.1731,4.85272 -7,6c-1.30746,1.814 -2,2 -3,3c0,0 -1.16019,-0.01291 -1,-1c0.50653,-3.12143 3,-5 4,-6c1,-1 1,-3 2,-3c1,0 1,-1 1,-2c0,0 -1.41422,-0.58578 0,-2c1.41422,-1.41422 4,-2 4,-4c0,0 1.70709,-0.29291 1,-1c-0.70709,-0.70709 -1.08582,0.42044 -3,1c-3.45084,1.04483 -5.47427,2.14935 -6,3c-1.17557,1.9021 -3,0 -3,1c0,1 2.88495,-0.27432 5,-1c4.82303,-1.65482 9,-1 10,-1c2,0 4,0 4,0c0,0 -4.01291,0.16019 -5,0c-3.12143,-0.50653 -7.12872,-1.13065 -10,-2c-3.45084,-1.04483 -6.69345,-3.4588 -8,-4c-2.77164,-1.14806 -3,-0.99998 -4,-0.99998c-1,0 -0.29453,0.34618 2,1.99998c1.814,1.30743 5.186,2.69254 7,4c1.14728,0.8269 3.4588,0.69345 4,2c0.38269,0.92389 1,1 2,2c0,0 1,0 2,0c0,0 0,1 1,1c1,0 3,1 3,1c2,1 3.29291,1.29291 4,2c0.70709,0.70709 0,1 1,1c1,0 -0.00485,0.09854 -1,0c-5.07422,-0.50244 -9.02475,-1.93918 -14,-4c-7.03607,-2.91443 -10.21167,-4.71411 -13,-7c-1.09366,-0.89661 -1.0979,-1.82443 -3,-3c-0.85065,-0.52573 -2,0 -1,0c0,0 0.69345,1.4588 2,2c2.77164,1.14804 4,2 7,3l2,3l2,1l2,1" id="svg_15" stroke="#0000ff" fill="none"/>
  <path d="m162.38013,72.76604c0,0 0.32443,1.22415 0.92307,2.7692c0.94977,2.45135 1.52881,5.04987 2.15384,6.15381c0.21442,0.37869 0.45731,0.86884 0.61539,1.53845c0.14139,0.59894 0.45731,1.48422 0.61539,2.15384c0.14139,0.59894 0.45731,1.17654 0.61539,1.84613c0.14139,0.59891 0.76498,1.17654 0.92307,1.84616c0.07068,0.29944 -0.30771,1.23077 0.30768,1.23077c0.30771,0 0,-0.61539 0,-0.9231c0,-0.61536 -0.15182,-1.80878 -0.30768,-2.7692c-0.19714,-1.21487 0,-3.0769 0,-4.30768c0,-1.23077 0,-1.84613 0,-2.46152c0,-0.61539 0,-0.92307 0,-1.23077c0,-0.30768 0.2793,-0.76807 1.53845,-0.92307c1.22156,-0.15036 2.40274,0.09891 3.38458,0.61539c1.46646,0.77139 3.5824,2.65167 4.61536,4.61536c0.77139,1.46646 1.02271,2.80804 0.61539,4.92303c-0.31335,1.62708 -1.65692,3.80676 -2.46152,4.92307c-0.76328,1.05899 -1.23077,1.23074 -2.15384,1.23074c-0.92307,0 -2.08261,-0.80396 -2.7692,-2.46152c-1.45648,-3.51624 -1.5946,-6.78717 -1.23077,-10.46149c0.3092,-3.12256 0.83511,-4.37277 1.53845,-5.23071c0.27588,-0.33652 1.13644,-0.75656 1.53845,-0.9231c0.85278,-0.35327 2.24924,0.10385 3.0769,0.61539c0.37015,0.22879 0.61539,0.61539 0.61539,1.84616c0,1.53845 -1.45218,4.65253 -5.53842,8.923c-2.26126,2.36322 -4.9028,4.0444 -5.53845,4.30768c-0.89893,0.37234 -2.02637,0.74283 -2.46152,0.30768c-0.43512,-0.43512 0.19897,-4.58441 2.76923,-7.99994c5.62686,-7.47739 11.19965,-10.29758 15.99991,-11.99994c3.58704,-1.27211 4.92303,-1.23076 5.23074,-1.23076c0.30768,0 0.30768,0.30769 0,0.61539c-0.92307,0.92308 -3.93439,5.0309 -7.99997,8.30763c-3.98721,3.21356 -8.4978,5.73624 -10.46149,6.7692c-1.46646,0.77139 -2.15381,0.92307 -3.0769,1.23077c0,0 -0.30521,0.05527 0.30771,0c3.42618,-0.30893 12.91513,-3.70911 27.99982,-10.76917c4.61295,-2.159 5.70496,-2.67487 5.53845,-3.0769c-0.23547,-0.56854 -0.9231,0 -3.38461,1.23074c-3.0769,1.53845 -7.63339,3.48285 -14.76913,7.69226c-4.27325,2.52081 -9.42758,6.34732 -11.99994,7.69226c-2.0766,1.08572 -2.7692,1.53845 -3.0769,1.84616c-0.30768,0.30768 -0.6442,0.27588 -0.30768,0c2.57385,-2.10999 8.07556,-6.07562 15.07681,-12.923c2.48874,-2.43402 3.53421,-3.33038 3.69229,-3.99997c0.07071,-0.29947 0,-0.61539 0,-0.61539c-0.30768,0 -1.86304,0.58749 -4.92303,2.46152c-2.4754,1.51602 -3.80676,2.27231 -4.92307,3.0769c-0.70599,0.50885 -0.61536,0.92307 -1.23074,1.23077c0,0 0.00922,0.15039 1.23074,0c2.51828,-0.31003 11.55927,-5.24908 14.76917,-7.38458c1.64035,-1.09128 2.46152,-1.84615 2.7692,-2.15384c0.30771,-0.30771 0.28131,-0.48602 -0.30768,-0.30769c-1.0618,0.32149 -3.60443,1.53593 -8.92303,5.53844c-4.18668,3.15067 -7.3255,5.1763 -10.15378,7.38458c-1.02893,0.80338 -1.26086,1.48441 -1.84613,1.84613c-0.26175,0.16177 -0.28549,0.05289 1.23074,-0.61539c9.0668,-3.99619 15.73752,-8.85806 20.61526,-12.30762c3.41693,-2.41646 4.14114,-2.67488 4.30768,-3.0769c0.11777,-0.28427 -0.32416,-0.44907 -0.92307,-0.30769c-2.00885,0.47423 -6.56543,3.66353 -9.8461,5.84612c-3.2099,2.1355 -7.69226,4.30768 -9.8461,5.84613l-0.61539,0.30768" id="svg_16" stroke="#0000ff" fill="none"/>
  <ellipse ry="68.09524" rx="70.95238" id="svg_17" cy="108.82539" cx="165.19048" stroke="#0000ff" fill="#0707f7"/>
  <ellipse ry="49.52381" rx="38.09524" id="svg_18" cy="87.39682" cx="287.57143" stroke="#0000ff" fill="#0707f7"/>
  <ellipse ry="21.42857" rx="37.14286" id="svg_19" cy="46.92063" cx="142.80953" stroke="#0000ff" fill="#0707f7"/>
  <ellipse ry="14.7619" rx="36.19048" id="svg_20" cy="37.39682" cx="279.95238" stroke="#0000ff" fill="#0707f7"/>
  <ellipse ry="22.82051" rx="45.89743" id="svg_21" cy="75.41879" cx="227.29061" stroke="#0000ff" fill="#0707f7"/>
  <ellipse ry="15.38461" rx="8.46154" id="svg_22" cy="126.95725" cx="293.44446" stroke="#0000ff" fill="#0707f7"/>
  <text style="cursor: move;" stroke-dasharray="5,2,2,2,2,2" transform="rotate(-6 181.057 89.0143) matrix(1.60746 0 0 1.83421 -244.289 -266.036)" stroke="#0000ff" font-weight="bold" xml:space="preserve" text-anchor="start" font-family="'Oxanium'" font-size="75" stroke-width="0" id="svg_23" y="215.378" x="159.2326" fill="#ffffff">Strata</text>
 </g>
</svg>